<mxfile host="65bd71144e">
    <diagram id="i1-L5nSDNpyhZJA7EQFY" name="Page-1">
        <mxGraphModel dx="2004" dy="1927" grid="1" gridSize="10" guides="1" tooltips="1" connect="1" arrows="1" fold="1" page="1" pageScale="1" pageWidth="850" pageHeight="1100" math="0" shadow="0">
            <root>
                <mxCell id="0"/>
                <mxCell id="1" parent="0"/>
                <mxCell id="6" value="Route 53" style="outlineConnect=0;dashed=0;verticalLabelPosition=bottom;verticalAlign=top;align=center;html=1;shape=mxgraph.aws3.route_53;fillColor=#F58536;gradientColor=none;" parent="1" vertex="1">
                    <mxGeometry x="378.25" y="-92.5" width="70.5" height="85.5" as="geometry"/>
                </mxCell>
                <mxCell id="21" value="静的コンテンツ&lt;br&gt;キャッシュなければアクセス" style="edgeStyle=none;html=1;exitX=0.5;exitY=1;exitDx=0;exitDy=0;exitPerimeter=0;entryX=0.5;entryY=0;entryDx=0;entryDy=0;entryPerimeter=0;" parent="1" source="7" target="25" edge="1">
                    <mxGeometry relative="1" as="geometry">
                        <mxPoint x="267" y="150" as="targetPoint"/>
                    </mxGeometry>
                </mxCell>
                <mxCell id="30" value="動的コンテンツ" style="edgeStyle=none;html=1;exitX=1;exitY=0.79;exitDx=0;exitDy=0;exitPerimeter=0;" parent="1" source="7" target="26" edge="1">
                    <mxGeometry relative="1" as="geometry"/>
                </mxCell>
                <mxCell id="35" value="errorログ保存" style="edgeStyle=none;html=1;exitX=0;exitY=0.5;exitDx=0;exitDy=0;exitPerimeter=0;entryX=1;entryY=0.21;entryDx=0;entryDy=0;entryPerimeter=0;" parent="1" source="7" target="34" edge="1">
                    <mxGeometry relative="1" as="geometry"/>
                </mxCell>
                <mxCell id="36" value="metrics送信" style="edgeStyle=none;html=1;exitX=0;exitY=0.79;exitDx=0;exitDy=0;exitPerimeter=0;entryX=0.75;entryY=0.14;entryDx=0;entryDy=0;entryPerimeter=0;" parent="1" source="7" target="33" edge="1">
                    <mxGeometry relative="1" as="geometry"/>
                </mxCell>
                <mxCell id="7" value="CloudFront" style="outlineConnect=0;dashed=0;verticalLabelPosition=bottom;verticalAlign=top;align=center;html=1;shape=mxgraph.aws3.cloudfront;fillColor=#F58536;gradientColor=none;" parent="1" vertex="1">
                    <mxGeometry x="220.5" y="-100" width="76.5" height="93" as="geometry"/>
                </mxCell>
                <mxCell id="18" value="名前解決" style="edgeStyle=none;html=1;exitX=0.75;exitY=1;exitDx=0;exitDy=0;" parent="1" source="17" target="6" edge="1">
                    <mxGeometry relative="1" as="geometry"/>
                </mxCell>
                <mxCell id="19" style="edgeStyle=none;html=1;exitX=0.5;exitY=1;exitDx=0;exitDy=0;" parent="1" source="17" target="7" edge="1">
                    <mxGeometry relative="1" as="geometry"/>
                </mxCell>
                <mxCell id="20" value="アクセス" style="edgeLabel;html=1;align=center;verticalAlign=middle;resizable=0;points=[];" parent="19" vertex="1" connectable="0">
                    <mxGeometry x="0.2445" relative="1" as="geometry">
                        <mxPoint as="offset"/>
                    </mxGeometry>
                </mxCell>
                <mxCell id="17" value="&lt;br&gt;user" style="shape=actor;whiteSpace=wrap;html=1;" parent="1" vertex="1">
                    <mxGeometry x="238.75" y="-300" width="40" height="60" as="geometry"/>
                </mxCell>
                <mxCell id="25" value="S3コンテンツ配信用" style="outlineConnect=0;dashed=0;verticalLabelPosition=bottom;verticalAlign=top;align=center;html=1;shape=mxgraph.aws3.s3;fillColor=#E05243;gradientColor=none;" parent="1" vertex="1">
                    <mxGeometry x="221.75" y="200" width="76.5" height="93" as="geometry"/>
                </mxCell>
                <mxCell id="31" value="" style="edgeStyle=none;html=1;" parent="1" source="26" target="27" edge="1">
                    <mxGeometry relative="1" as="geometry"/>
                </mxCell>
                <mxCell id="32" style="edgeStyle=none;html=1;exitX=0.855;exitY=0.855;exitDx=0;exitDy=0;exitPerimeter=0;" parent="1" source="26" target="28" edge="1">
                    <mxGeometry relative="1" as="geometry"/>
                </mxCell>
                <mxCell id="26" value="ALB" style="outlineConnect=0;dashed=0;verticalLabelPosition=bottom;verticalAlign=top;align=center;html=1;shape=mxgraph.aws3.application_load_balancer;fillColor=#F58534;gradientColor=none;" parent="1" vertex="1">
                    <mxGeometry x="400" y="151" width="69" height="72" as="geometry"/>
                </mxCell>
                <mxCell id="27" value="EC2" style="outlineConnect=0;dashed=0;verticalLabelPosition=bottom;verticalAlign=top;align=center;html=1;shape=mxgraph.aws3.ec2;fillColor=#F58534;gradientColor=none;" parent="1" vertex="1">
                    <mxGeometry x="397" y="340" width="76.5" height="93" as="geometry"/>
                </mxCell>
                <mxCell id="28" value="ECS" style="outlineConnect=0;dashed=0;verticalLabelPosition=bottom;verticalAlign=top;align=center;html=1;shape=mxgraph.aws3.ecs;fillColor=#F58534;gradientColor=none;" parent="1" vertex="1">
                    <mxGeometry x="540" y="360" width="72" height="67.5" as="geometry"/>
                </mxCell>
                <mxCell id="29" value="WAF" style="outlineConnect=0;dashed=0;verticalLabelPosition=bottom;verticalAlign=top;align=center;html=1;shape=mxgraph.aws3.waf;fillColor=#759C3E;gradientColor=none;" parent="1" vertex="1">
                    <mxGeometry x="170" y="-135.5" width="36.5" height="43" as="geometry"/>
                </mxCell>
                <mxCell id="39" style="edgeStyle=none;html=1;entryX=0.5;entryY=0;entryDx=0;entryDy=0;entryPerimeter=0;" parent="1" source="33" target="38" edge="1">
                    <mxGeometry relative="1" as="geometry"/>
                </mxCell>
                <mxCell id="33" value="CloudWatch" style="outlineConnect=0;dashed=0;verticalLabelPosition=bottom;verticalAlign=top;align=center;html=1;shape=mxgraph.aws3.cloudwatch;fillColor=#759C3E;gradientColor=none;" parent="1" vertex="1">
                    <mxGeometry x="40" y="130" width="82.5" height="93" as="geometry"/>
                </mxCell>
                <mxCell id="34" value="S3ログ用" style="outlineConnect=0;dashed=0;verticalLabelPosition=bottom;verticalAlign=top;align=center;html=1;shape=mxgraph.aws3.s3;fillColor=#E05243;gradientColor=none;" parent="1" vertex="1">
                    <mxGeometry x="-63.25" y="70" width="76.5" height="93" as="geometry"/>
                </mxCell>
                <mxCell id="42" value="管理者にエラーを通知" style="edgeStyle=none;html=1;" parent="1" source="38" target="41" edge="1">
                    <mxGeometry relative="1" as="geometry"/>
                </mxCell>
                <mxCell id="38" value="SNS" style="outlineConnect=0;dashed=0;verticalLabelPosition=bottom;verticalAlign=top;align=center;html=1;shape=mxgraph.aws3.sns;fillColor=#D9A741;gradientColor=none;" parent="1" vertex="1">
                    <mxGeometry x="43" y="320" width="76.5" height="76.5" as="geometry"/>
                </mxCell>
                <mxCell id="41" value="&lt;br&gt;admin" style="shape=actor;whiteSpace=wrap;html=1;" parent="1" vertex="1">
                    <mxGeometry x="61.25" y="510" width="40" height="60" as="geometry"/>
                </mxCell>
                <mxCell id="44" value="必要に応じてathenaで解析" style="text;html=1;align=center;verticalAlign=middle;resizable=0;points=[];autosize=1;strokeColor=none;fillColor=none;" parent="1" vertex="1">
                    <mxGeometry x="-260" y="30" width="170" height="30" as="geometry"/>
                </mxCell>
                <mxCell id="46" value="" style="edgeStyle=none;html=1;" parent="1" source="45" target="34" edge="1">
                    <mxGeometry relative="1" as="geometry"/>
                </mxCell>
                <mxCell id="45" value="Athena" style="outlineConnect=0;dashed=0;verticalLabelPosition=bottom;verticalAlign=top;align=center;html=1;shape=mxgraph.aws3.athena;fillColor=#F58534;gradientColor=none;" parent="1" vertex="1">
                    <mxGeometry x="-230" y="78.25" width="76.5" height="76.5" as="geometry"/>
                </mxCell>
            </root>
        </mxGraphModel>
    </diagram>
</mxfile>